# xmcd
#
# Track frame offsets: 
#        150
#        14920
#        28440
#        43128
#        55279
#        70056
#        85664
#        102407
#        117671
#        133480
#        151599
#        162559
#        174593
#        190649
#        209583
#        221533
#        236235
#        253285
#        269426
#        285483
#
# Disc length: 4047 seconds
#
# Revision: 0
# Processed by: cddbd v1.5.1PL2 Copyright (c) Steve Scherf et al.
# Submitted via: ExactAudioCopy v0.95b4
#
DISCID=3e0fcd14
DTITLE=The Countdown Singers - 20 Best of 80's Country
DYEAR=2004
DGENRE=Country
TTITLE0=Drivin' My Life Away
TTITLE1=Eighteen Wheels and a Dozen Roses
TTITLE2=All My Ex's Live in Texas
TTITLE3=Rockin' with the Rhythm of the Rain
TTITLE4=Love in the First Degree
TTITLE5=I'm No Stranger to the Rain
TTITLE6=I Was Country When Country Wasn't Cool
TTITLE7=He Stopped Loving Her Today
TTITLE8=The First Word in Memory Is Me
TTITLE9=Lady
TTITLE10=On the Road Again
TTITLE11=9 to 5
TTITLE12=Red Neckin' Love Makin' Night
TTITLE13=Tennesee Rose 
TTITLE14=Elvira
TTITLE15=Cowboys and Clowns
TTITLE16=Love Will Find Its Way to You
TTITLE17=Crying
TTITLE18=Lookin' for Love
TTITLE19=I Believe in You
EXTD=
EXTT0=
EXTT1=
EXTT2=
EXTT3=
EXTT4=
EXTT5=
EXTT6=
EXTT7=
EXTT8=
EXTT9=
EXTT10=
EXTT11=
EXTT12=
EXTT13=
EXTT14=
EXTT15=
EXTT16=
EXTT17=
EXTT18=
EXTT19=
PLAYORDER=
